<svg xmlns="http://www.w3.org/2000/svg" viewBox="0 0 1024 1024" width="1024" height="1024">
  <defs>
    <linearGradient id="bg" x1="0" y1="0" x2="1" y2="1"><stop offset="0" stop-color="#07111f"/><stop offset="0.45" stop-color="#102a45"/><stop offset="1" stop-color="#03101b"/></linearGradient>
    <radialGradient id="glow" cx="50%" cy="62%" r="55%"><stop offset="0" stop-color="#35d8ff" stop-opacity="0.55"/><stop offset="0.42" stop-color="#007BFF" stop-opacity="0.22"/><stop offset="1" stop-color="#000" stop-opacity="0"/></radialGradient>
    <filter id="softGlow" x="-50%" y="-50%" width="200%" height="200%"><feGaussianBlur stdDeviation="8" result="blur"/><feMerge><feMergeNode in="blur"/><feMergeNode in="SourceGraphic"/></feMerge></filter>
    <pattern id="grid" width="48" height="48" patternUnits="userSpaceOnUse"><path d="M48 0H0V48" fill="none" stroke="#43d9ff" stroke-opacity="0.11" stroke-width="1"/></pattern>
  </defs>
  <rect width="1024" height="1024" fill="url(#bg)"/><rect width="1024" height="1024" fill="url(#grid)" opacity="0.75"/><rect width="1024" height="1024" fill="url(#glow)"/>
  <g opacity="0.28" stroke="#9defff" stroke-width="3"><rect x="90" y="180" width="190" height="260" fill="#d9fbff" opacity="0.08"/><rect x="310" y="160" width="190" height="280" fill="#d9fbff" opacity="0.08"/><rect x="530" y="160" width="190" height="280" fill="#d9fbff" opacity="0.08"/><rect x="750" y="180" width="190" height="260" fill="#d9fbff" opacity="0.08"/></g>
  <rect x="70" y="76" width="884" height="174" fill="#061526" fill-opacity="0.56" stroke="#49ddff" stroke-width="3"/>
  <text x="512" y="142" text-anchor="middle" font-family="Inter, Arial, sans-serif" font-size="52" font-weight="800" fill="#ffffff">AI Chatbots for</text>
  <text x="512" y="205" text-anchor="middle" font-family="Inter, Arial, sans-serif" font-size="52" font-weight="800" fill="#ffffff">Small Businesses</text>
  <g transform="translate(356 310)"><rect x="0" y="0" width="312" height="430" rx="42" fill="#0b1628" stroke="#7aeaff" stroke-width="5" filter="url(#softGlow)"/><rect x="28" y="48" width="256" height="330" rx="22" fill="#07111e" stroke="#1eb9ff" stroke-opacity="0.45"/><circle cx="156" cy="400" r="14" fill="#43d9ff" opacity="0.8"/><g transform="translate(86 96)"><circle cx="70" cy="70" r="60" fill="#061526" stroke="#49ddff" stroke-width="5"/><circle cx="48" cy="60" r="8" fill="#fff"/><circle cx="92" cy="60" r="8" fill="#fff"/><path d="M44 91 Q70 114 98 91" stroke="#fff" stroke-width="7" fill="none" stroke-linecap="round"/><path d="M70 8 V-22" stroke="#49ddff" stroke-width="6" stroke-linecap="round"/><circle cx="70" cy="-30" r="10" fill="#49ddff"/></g><rect x="64" y="246" width="184" height="26" rx="13" fill="#49ddff" opacity="0.85"/><rect x="64" y="292" width="132" height="18" rx="9" fill="#ffffff" opacity="0.45"/><rect x="64" y="326" width="160" height="18" rx="9" fill="#ffffff" opacity="0.35"/></g>
  <g fill="#07111f" stroke="#42dcff" stroke-opacity="0.45" stroke-width="2"><circle cx="210" cy="600" r="42"/><rect x="155" y="650" width="110" height="160" rx="44"/><circle cx="814" cy="600" r="42"/><rect x="759" y="650" width="110" height="160" rx="44"/><circle cx="512" cy="806" r="34"/><rect x="466" y="850" width="92" height="116" rx="36"/></g>
  <g stroke="#49ddff" stroke-width="3" fill="none" opacity="0.72" filter="url(#softGlow)"><path d="M300 520 C250 470 225 430 178 382"/><path d="M724 520 C776 468 792 425 846 382"/><path d="M512 742 C512 800 512 824 512 850"/></g>
  <g fill="#061526" stroke="#49ddff" stroke-width="3" opacity="0.92"><rect x="116" y="330" width="190" height="82" rx="24"/><rect x="718" y="330" width="190" height="82" rx="24"/><rect x="382" y="790" width="260" height="72" rx="22"/></g>
  <g font-family="Inter, Arial, sans-serif" font-size="26" font-weight="700" fill="#ffffff" opacity="0.95"><text x="211" y="382" text-anchor="middle">Support</text><text x="813" y="382" text-anchor="middle">Leads</text><text x="512" y="836" text-anchor="middle">Automation</text></g>
  <g transform="translate(650 905)" fill="#ffffff"><path d="M0 32 L42 0 L84 32 L126 0 L168 32 L146 54 L126 38 L84 70 L42 38 L22 54 Z" opacity="0.95"/><text x="190" y="35" font-family="Arial, sans-serif" font-size="32" font-weight="800">MEMO</text><text x="190" y="70" font-family="Arial, sans-serif" font-size="26" font-weight="700">INFOTECH</text></g>
</svg>
