<svg width="1280" height="720" viewBox="0 0 1280 720" fill="none" xmlns="http://www.w3.org/2000/svg" role="img" aria-labelledby="title desc">
  <title id="title">Android App Features for Local Businesses</title>
  <desc id="desc">Dark cyan technology style thumbnail showing app feature cards, mobile UI wireframes, automation nodes, and headline text. No company logo.</desc>
  <defs>
    <radialGradient id="bgGlow" cx="50%" cy="45%" r="70%">
      <stop offset="0%" stop-color="#0B86FF" stop-opacity="0.36"/>
      <stop offset="45%" stop-color="#052B52" stop-opacity="0.42"/>
      <stop offset="100%" stop-color="#020617" stop-opacity="1"/>
    </radialGradient>
    <linearGradient id="cyan" x1="0" y1="0" x2="1" y2="1">
      <stop stop-color="#22D3EE"/>
      <stop offset="1" stop-color="#007BFF"/>
    </linearGradient>
    <linearGradient id="card" x1="0" y1="0" x2="1" y2="1">
      <stop stop-color="#0F2746" stop-opacity="0.92"/>
      <stop offset="1" stop-color="#07111F" stop-opacity="0.94"/>
    </linearGradient>
    <filter id="softGlow" x="-40%" y="-40%" width="180%" height="180%">
      <feGaussianBlur stdDeviation="10" result="blur"/>
      <feColorMatrix in="blur" type="matrix" values="0 0 0 0 0.05 0 0 0 0 0.72 0 0 0 0 0.95 0 0 0 0.8 0"/>
      <feBlend in="SourceGraphic"/>
    </filter>
  </defs>
  <rect width="1280" height="720" fill="#020617"/>
  <rect width="1280" height="720" fill="url(#bgGlow)"/>
  <g opacity="0.2" stroke="#22D3EE" stroke-width="1">
    <path d="M0 110H1280M0 220H1280M0 330H1280M0 440H1280M0 550H1280M0 660H1280"/>
    <path d="M110 0V720M220 0V720M330 0V720M440 0V720M550 0V720M660 0V720M770 0V720M880 0V720M990 0V720M1100 0V720M1210 0V720"/>
  </g>
  <circle cx="1010" cy="156" r="118" fill="#22D3EE" opacity="0.13" filter="url(#softGlow)"/>
  <circle cx="170" cy="600" r="145" fill="#007BFF" opacity="0.16" filter="url(#softGlow)"/>

  <g transform="translate(810 92)">
    <rect x="0" y="0" width="286" height="536" rx="42" fill="#07111F" stroke="#22D3EE" stroke-width="3"/>
    <rect x="24" y="56" width="238" height="430" rx="26" fill="#0B172A" stroke="#164E63"/>
    <rect x="88" y="24" width="110" height="12" rx="6" fill="#233A56"/>
    <rect x="52" y="88" width="182" height="34" rx="17" fill="url(#cyan)" opacity="0.9"/>
    <rect x="52" y="150" width="182" height="62" rx="18" fill="#0F2746" stroke="#22D3EE" stroke-opacity="0.42"/>
    <rect x="52" y="232" width="82" height="78" rx="18" fill="#071B2F" stroke="#22D3EE" stroke-opacity="0.38"/>
    <rect x="152" y="232" width="82" height="78" rx="18" fill="#071B2F" stroke="#22D3EE" stroke-opacity="0.38"/>
    <rect x="52" y="330" width="182" height="44" rx="16" fill="#0F2746" stroke="#22D3EE" stroke-opacity="0.42"/>
    <rect x="52" y="398" width="182" height="44" rx="16" fill="#0F2746" stroke="#22D3EE" stroke-opacity="0.42"/>
    <circle cx="88" cy="181" r="14" fill="#22D3EE"/>
    <path d="M80 181L86 187L98 173" stroke="#020617" stroke-width="5" stroke-linecap="round" stroke-linejoin="round"/>
  </g>

  <g transform="translate(88 98)">
    <rect x="0" y="0" width="650" height="110" rx="26" fill="url(#card)" stroke="#22D3EE" stroke-opacity="0.35"/>
    <text x="34" y="49" font-family="Inter, Arial, sans-serif" font-size="25" font-weight="700" fill="#22D3EE">LOCAL BUSINESS APP GUIDE</text>
    <text x="34" y="86" font-family="Inter, Arial, sans-serif" font-size="24" font-weight="600" fill="#E5F7FF">Bookings • Payments • Admin Panel • Notifications</text>
  </g>

  <g transform="translate(88 252)">
    <text x="0" y="0" font-family="Inter, Arial, sans-serif" font-size="62" font-weight="900" fill="#FFFFFF" letter-spacing="-2">Android App</text>
    <text x="0" y="74" font-family="Inter, Arial, sans-serif" font-size="62" font-weight="900" fill="url(#cyan)" letter-spacing="-2">Features That Matter</text>
    <text x="0" y="134" font-family="Inter, Arial, sans-serif" font-size="30" font-weight="600" fill="#B6E8F7">for shops, clinics, salons, tutors & service teams</text>
  </g>

  <g transform="translate(96 460)" font-family="Inter, Arial, sans-serif" font-weight="700">
    <g><rect width="188" height="64" rx="18" fill="#0F2746" stroke="#22D3EE" stroke-opacity="0.45"/><circle cx="32" cy="32" r="13" fill="#22D3EE"/><text x="58" y="40" font-size="22" fill="#E5F7FF">Bookings</text></g>
    <g transform="translate(214 0)"><rect width="188" height="64" rx="18" fill="#0F2746" stroke="#22D3EE" stroke-opacity="0.45"/><circle cx="32" cy="32" r="13" fill="#22D3EE"/><text x="58" y="40" font-size="22" fill="#E5F7FF">Payments</text></g>
    <g transform="translate(428 0)"><rect width="188" height="64" rx="18" fill="#0F2746" stroke="#22D3EE" stroke-opacity="0.45"/><circle cx="32" cy="32" r="13" fill="#22D3EE"/><text x="58" y="40" font-size="22" fill="#E5F7FF">Reports</text></g>
    <g transform="translate(0 86)"><rect width="258" height="64" rx="18" fill="#0F2746" stroke="#22D3EE" stroke-opacity="0.45"/><circle cx="32" cy="32" r="13" fill="#22D3EE"/><text x="58" y="40" font-size="22" fill="#E5F7FF">Push Notifications</text></g>
    <g transform="translate(284 86)"><rect width="260" height="64" rx="18" fill="#0F2746" stroke="#22D3EE" stroke-opacity="0.45"/><circle cx="32" cy="32" r="13" fill="#22D3EE"/><text x="58" y="40" font-size="22" fill="#E5F7FF">Admin Dashboard</text></g>
  </g>

  <g opacity="0.75" stroke="#22D3EE" stroke-width="3" stroke-linecap="round">
    <path d="M720 260C770 248 798 224 833 184"/>
    <path d="M706 520C760 504 792 478 837 436"/>
    <circle cx="720" cy="260" r="6" fill="#22D3EE"/>
    <circle cx="706" cy="520" r="6" fill="#22D3EE"/>
  </g>
</svg>
