<svg width="1200" height="675" viewBox="0 0 1200 675" fill="none" xmlns="http://www.w3.org/2000/svg" role="img" aria-labelledby="title desc">
  <title id="title">Firebase vs Supabase app backend choices</title>
  <desc id="desc">Dark cyan technology thumbnail showing mobile app backend architecture, database nodes, and the headline Firebase vs Supabase.</desc>
  <defs>
    <radialGradient id="glowA" cx="0" cy="0" r="1" gradientUnits="userSpaceOnUse" gradientTransform="translate(920 128) rotate(126) scale(455 338)">
      <stop stop-color="#00E5FF" stop-opacity="0.55"/><stop offset="0.46" stop-color="#007BFF" stop-opacity="0.18"/><stop offset="1" stop-color="#020617" stop-opacity="0"/>
    </radialGradient>
    <radialGradient id="glowB" cx="0" cy="0" r="1" gradientUnits="userSpaceOnUse" gradientTransform="translate(192 540) rotate(-35) scale(390 255)">
      <stop stop-color="#22D3EE" stop-opacity="0.38"/><stop offset="1" stop-color="#020617" stop-opacity="0"/>
    </radialGradient>
    <linearGradient id="card" x1="146" y1="96" x2="1045" y2="608" gradientUnits="userSpaceOnUse"><stop stop-color="#07111F"/><stop offset="1" stop-color="#031827"/></linearGradient>
    <linearGradient id="cyan" x1="0" y1="0" x2="1" y2="1"><stop stop-color="#67E8F9"/><stop offset="1" stop-color="#007BFF"/></linearGradient>
    <filter id="shadow" x="-30%" y="-30%" width="160%" height="160%"><feDropShadow dx="0" dy="24" stdDeviation="30" flood-color="#00D5FF" flood-opacity="0.20"/></filter>
    <pattern id="grid" width="38" height="38" patternUnits="userSpaceOnUse"><path d="M 38 0 L 0 0 0 38" stroke="#1E3A5F" stroke-opacity="0.38" stroke-width="1"/></pattern>
  </defs>
  <rect width="1200" height="675" fill="#020617"/><rect width="1200" height="675" fill="url(#grid)" opacity="0.55"/><rect width="1200" height="675" fill="url(#glowA)"/><rect width="1200" height="675" fill="url(#glowB)"/>
  <path d="M66 106C236 40 354 53 498 111C661 176 826 85 1138 122" stroke="#0EA5E9" stroke-opacity="0.16" stroke-width="2"/><path d="M42 574C209 498 349 506 516 556C700 611 884 527 1158 553" stroke="#67E8F9" stroke-opacity="0.18" stroke-width="2"/>
  <g filter="url(#shadow)"><rect x="108" y="72" width="984" height="531" rx="42" fill="url(#card)" stroke="#0EA5E9" stroke-opacity="0.34"/><rect x="132" y="96" width="936" height="483" rx="30" fill="#020817" fill-opacity="0.58" stroke="#164E63"/></g>
  <g opacity="0.95"><rect x="754" y="162" width="236" height="290" rx="28" fill="#030D19" stroke="#22D3EE" stroke-opacity="0.55" stroke-width="2"/><rect x="787" y="195" width="170" height="44" rx="12" fill="#06283C" stroke="#38BDF8" stroke-opacity="0.55"/><rect x="787" y="263" width="170" height="44" rx="12" fill="#06283C" stroke="#38BDF8" stroke-opacity="0.45"/><rect x="787" y="331" width="170" height="44" rx="12" fill="#06283C" stroke="#38BDF8" stroke-opacity="0.35"/><circle cx="811" cy="217" r="7" fill="#67E8F9"/><circle cx="811" cy="285" r="7" fill="#22D3EE"/><circle cx="811" cy="353" r="7" fill="#007BFF"/><path d="M818 495C818 476 925 476 925 495V527C925 546 818 546 818 527V495Z" fill="#041A2B" stroke="#67E8F9" stroke-opacity="0.7"/><ellipse cx="871.5" cy="495" rx="53.5" ry="17" fill="#06283C" stroke="#67E8F9" stroke-opacity="0.75"/><ellipse cx="871.5" cy="527" rx="53.5" ry="17" stroke="#38BDF8" stroke-opacity="0.45"/></g>
  <g><rect x="562" y="245" width="128" height="176" rx="24" fill="#06162A" stroke="#67E8F9" stroke-opacity="0.75" stroke-width="2"/><rect x="583" y="275" width="86" height="115" rx="12" fill="#031323" stroke="#0EA5E9" stroke-opacity="0.7"/><circle cx="626" cy="403" r="7" fill="#67E8F9"/><path d="M501 333H560" stroke="#67E8F9" stroke-width="3" stroke-linecap="round" stroke-dasharray="8 10"/><path d="M690 333H754" stroke="#67E8F9" stroke-width="3" stroke-linecap="round" stroke-dasharray="8 10"/></g>
  <g><rect x="236" y="178" width="234" height="106" rx="24" fill="#06162A" stroke="#0EA5E9" stroke-opacity="0.58"/><rect x="236" y="366" width="234" height="106" rx="24" fill="#06162A" stroke="#22D3EE" stroke-opacity="0.58"/><text x="353" y="224" text-anchor="middle" font-family="Inter, Arial, sans-serif" font-size="29" font-weight="800" fill="#F8FAFC">Firebase</text><text x="353" y="252" text-anchor="middle" font-family="Inter, Arial, sans-serif" font-size="16" font-weight="600" fill="#93C5FD">fast MVP launch</text><text x="353" y="412" text-anchor="middle" font-family="Inter, Arial, sans-serif" font-size="29" font-weight="800" fill="#F8FAFC">Supabase</text><text x="353" y="440" text-anchor="middle" font-family="Inter, Arial, sans-serif" font-size="16" font-weight="600" fill="#93C5FD">SQL + ownership</text><path d="M470 231C522 231 528 292 562 309" stroke="#38BDF8" stroke-width="3" stroke-linecap="round" stroke-dasharray="10 10"/><path d="M470 419C523 419 528 370 562 354" stroke="#22D3EE" stroke-width="3" stroke-linecap="round" stroke-dasharray="10 10"/></g>
  <g><rect x="189" y="511" width="322" height="44" rx="22" fill="#06283C" stroke="#0EA5E9" stroke-opacity="0.45"/><text x="350" y="539" text-anchor="middle" font-family="Inter, Arial, sans-serif" font-size="16" font-weight="700" fill="#BAE6FD">authentication • database • storage • APIs</text></g>
  <text x="170" y="127" font-family="Inter, Arial, sans-serif" font-size="17" letter-spacing="3" font-weight="800" fill="#67E8F9">SMALL BUSINESS APP BACKEND</text><text x="169" y="612" font-family="Inter, Arial, sans-serif" font-size="15" font-weight="600" fill="#7DD3FC" opacity="0.85">Practical architecture choices for affordable Android &amp; Flutter apps</text><text x="600" y="75" text-anchor="middle" font-family="Inter, Arial, sans-serif" font-size="22" font-weight="800" fill="#E0F2FE" opacity="0.28">API  DATABASE  AUTH  STORAGE  REALTIME</text>
  <text x="170" y="352" font-family="Inter, Arial, sans-serif" font-size="72" font-weight="900" fill="#FFFFFF">Firebase</text><text x="170" y="422" font-family="Inter, Arial, sans-serif" font-size="72" font-weight="900" fill="#FFFFFF">vs Supabase</text><rect x="171" y="442" width="254" height="12" rx="6" fill="url(#cyan)"/>
</svg>
