<svg xmlns="http://www.w3.org/2000/svg" viewBox="0 0 1024 1024" width="1024" height="1024">
  <defs>
    <linearGradient id="bg" x1="0" y1="0" x2="1" y2="1"><stop offset="0" stop-color="#06101d"/><stop offset="0.55" stop-color="#0d2c4a"/><stop offset="1" stop-color="#020812"/></linearGradient>
    <radialGradient id="halo" cx="52%" cy="58%" r="52%"><stop offset="0" stop-color="#3be7ff" stop-opacity="0.48"/><stop offset="0.5" stop-color="#007BFF" stop-opacity="0.2"/><stop offset="1" stop-color="#000" stop-opacity="0"/></radialGradient>
    <filter id="glow" x="-40%" y="-40%" width="180%" height="180%"><feGaussianBlur stdDeviation="7" result="b"/><feMerge><feMergeNode in="b"/><feMergeNode in="SourceGraphic"/></feMerge></filter>
    <pattern id="grid" width="44" height="44" patternUnits="userSpaceOnUse"><path d="M44 0H0V44" fill="none" stroke="#5be8ff" stroke-opacity="0.10" stroke-width="1"/></pattern>
  </defs>
  <rect width="1024" height="1024" fill="url(#bg)"/><rect width="1024" height="1024" fill="url(#grid)"/><rect width="1024" height="1024" fill="url(#halo)"/>
  <rect x="70" y="76" width="884" height="174" fill="#061526" fill-opacity="0.58" stroke="#49ddff" stroke-width="3"/>
  <text x="512" y="142" text-anchor="middle" font-family="Inter, Arial, sans-serif" font-size="50" font-weight="800" fill="#fff">Mobile App</text>
  <text x="512" y="205" text-anchor="middle" font-family="Inter, Arial, sans-serif" font-size="50" font-weight="800" fill="#fff">Maintenance Guide</text>
  <g opacity="0.22" stroke="#8ff3ff" stroke-width="3"><rect x="102" y="318" width="190" height="260" fill="#d9fbff" opacity="0.08"/><rect x="735" y="318" width="190" height="260" fill="#d9fbff" opacity="0.08"/></g>
  <g transform="translate(350 305)" filter="url(#glow)">
    <rect x="0" y="0" width="324" height="470" rx="44" fill="#09172a" stroke="#7aeaff" stroke-width="5"/>
    <rect x="30" y="54" width="264" height="350" rx="24" fill="#05101d" stroke="#24cfff" stroke-opacity="0.5"/>
    <circle cx="162" cy="434" r="14" fill="#49ddff"/>
    <path d="M94 165 h136 M94 215 h104 M94 265 h150" stroke="#ffffff" stroke-opacity="0.5" stroke-width="18" stroke-linecap="round"/>
    <circle cx="244" cy="132" r="38" fill="#102a45" stroke="#49ddff" stroke-width="5"/>
    <path d="M226 132 l13 14 l29 -35" fill="none" stroke="#ffffff" stroke-width="8" stroke-linecap="round" stroke-linejoin="round"/>
  </g>
  <g transform="translate(112 612)" fill="#07111f" stroke="#49ddff" stroke-width="4" filter="url(#glow)">
    <circle cx="90" cy="90" r="64"/><path d="M90 38 v36 M90 106 v36 M38 90 h36 M106 90 h36"/><circle cx="90" cy="90" r="18" fill="#49ddff" stroke="none"/>
    <text x="90" y="198" text-anchor="middle" font-family="Arial" font-size="25" font-weight="700" fill="#fff" stroke="none">Updates</text>
  </g>
  <g transform="translate(740 612)" fill="#07111f" stroke="#49ddff" stroke-width="4" filter="url(#glow)">
    <path d="M90 30 L160 70 V136 C160 184 122 214 90 226 C58 214 20 184 20 136 V70 Z"/><path d="M60 126 l22 24 l48 -62" fill="none" stroke="#fff" stroke-width="8" stroke-linecap="round" stroke-linejoin="round"/>
    <text x="90" y="270" text-anchor="middle" font-family="Arial" font-size="25" font-weight="700" fill="#fff" stroke="none">Security</text>
  </g>
  <g stroke="#49ddff" stroke-width="3" fill="none" opacity="0.75"><path d="M290 700 C350 650 365 604 350 540"/><path d="M740 700 C680 650 662 604 674 540"/><path d="M512 776 V890"/></g>
  <rect x="362" y="820" width="300" height="82" rx="24" fill="#061526" stroke="#49ddff" stroke-width="3" opacity="0.95"/>
  <text x="512" y="873" text-anchor="middle" font-family="Inter, Arial, sans-serif" font-size="30" font-weight="800" fill="#fff">Support • Fixes • Growth</text>
</svg>
