<svg xmlns="http://www.w3.org/2000/svg" width="1200" height="900" viewBox="0 0 1200 900" role="img" aria-labelledby="title desc">
  <title id="title">Workflow automation thumbnail for small businesses</title>
  <desc id="desc">Abstract no-logo illustration with dashboard cards, automation nodes, and business workflow lines.</desc>
  <defs>
    <linearGradient id="bg" x1="0" y1="0" x2="1" y2="1"><stop offset="0" stop-color="#07111f"/><stop offset="0.55" stop-color="#0b2a52"/><stop offset="1" stop-color="#007BFF"/></linearGradient>
    <linearGradient id="card" x1="0" y1="0" x2="1" y2="1"><stop offset="0" stop-color="#ffffff" stop-opacity="0.98"/><stop offset="1" stop-color="#dbeafe" stop-opacity="0.94"/></linearGradient>
    <filter id="shadow" x="-20%" y="-20%" width="140%" height="140%"><feDropShadow dx="0" dy="24" stdDeviation="22" flood-color="#020617" flood-opacity="0.35"/></filter>
  </defs>
  <rect width="1200" height="900" fill="url(#bg)"/><circle cx="1010" cy="150" r="210" fill="#60a5fa" opacity="0.18"/><circle cx="160" cy="760" r="260" fill="#93c5fd" opacity="0.16"/><path d="M0 650 C230 560 330 740 560 650 S910 480 1200 610 L1200 900 L0 900 Z" fill="#020617" opacity="0.22"/>
  <g opacity="0.45" stroke="#bfdbfe" stroke-width="2"><path d="M234 260 H392 Q430 260 430 298 V354" fill="none"/><path d="M620 214 V320 Q620 360 660 360 H816" fill="none"/><path d="M385 604 H500 Q540 604 540 564 V520" fill="none"/><path d="M782 590 H910 Q950 590 950 550 V492" fill="none"/></g>
  <g filter="url(#shadow)"><rect x="110" y="130" width="300" height="188" rx="34" fill="url(#card)"/><rect x="150" y="174" width="126" height="20" rx="10" fill="#0f172a" opacity="0.9"/><rect x="150" y="214" width="210" height="16" rx="8" fill="#007BFF" opacity="0.78"/><rect x="150" y="250" width="160" height="16" rx="8" fill="#94a3b8" opacity="0.65"/><circle cx="340" cy="246" r="38" fill="#007BFF" opacity="0.16"/><path d="M324 246 l13 13 25-32" fill="none" stroke="#007BFF" stroke-width="11" stroke-linecap="round" stroke-linejoin="round"/></g>
  <g filter="url(#shadow)"><rect x="462" y="110" width="282" height="220" rx="38" fill="#0f172a" opacity="0.94"/><rect x="506" y="156" width="190" height="20" rx="10" fill="#dbeafe" opacity="0.95"/><rect x="506" y="206" width="58" height="82" rx="14" fill="#007BFF"/><rect x="585" y="180" width="58" height="108" rx="14" fill="#38bdf8"/><rect x="664" y="232" width="58" height="56" rx="14" fill="#93c5fd"/></g>
  <g filter="url(#shadow)"><rect x="790" y="238" width="294" height="196" rx="36" fill="url(#card)"/><circle cx="852" cy="300" r="30" fill="#007BFF" opacity="0.88"/><circle cx="938" cy="300" r="30" fill="#0f172a" opacity="0.88"/><circle cx="1024" cy="300" r="30" fill="#60a5fa" opacity="0.88"/><path d="M882 300 H908 M968 300 H994" stroke="#007BFF" stroke-width="8" stroke-linecap="round" opacity="0.7"/><rect x="834" y="360" width="200" height="18" rx="9" fill="#1e293b" opacity="0.85"/><rect x="834" y="392" width="144" height="14" rx="7" fill="#64748b" opacity="0.55"/></g>
  <g filter="url(#shadow)"><rect x="180" y="500" width="292" height="210" rx="38" fill="url(#card)"/><rect x="224" y="548" width="144" height="18" rx="9" fill="#0f172a" opacity="0.88"/><g fill="#007BFF" opacity="0.85"><rect x="226" y="598" width="34" height="34" rx="10"/><rect x="226" y="648" width="34" height="34" rx="10"/></g><rect x="282" y="605" width="128" height="14" rx="7" fill="#64748b" opacity="0.7"/><rect x="282" y="655" width="96" height="14" rx="7" fill="#64748b" opacity="0.7"/></g>
  <g filter="url(#shadow)"><rect x="530" y="420" width="270" height="225" rx="40" fill="#ffffff" opacity="0.96"/><circle cx="606" cy="512" r="50" fill="#007BFF" opacity="0.12"/><path d="M590 512 h32 M606 496 v32" stroke="#007BFF" stroke-width="12" stroke-linecap="round"/><rect x="666" y="470" width="84" height="18" rx="9" fill="#111827" opacity="0.9"/><rect x="666" y="508" width="64" height="14" rx="7" fill="#94a3b8" opacity="0.7"/><rect x="574" y="584" width="182" height="22" rx="11" fill="#007BFF" opacity="0.82"/></g>
  <g filter="url(#shadow)"><rect x="835" y="545" width="245" height="170" rx="34" fill="#0f172a" opacity="0.95"/><path d="M894 630 l34 34 76-88" fill="none" stroke="#38bdf8" stroke-width="18" stroke-linecap="round" stroke-linejoin="round"/><rect x="880" y="586" width="150" height="16" rx="8" fill="#dbeafe" opacity="0.82"/></g>
  <text x="92" y="810" font-family="Inter, Arial, sans-serif" font-size="54" font-weight="800" fill="#ffffff">Workflow Automation</text><text x="94" y="854" font-family="Inter, Arial, sans-serif" font-size="28" font-weight="600" fill="#dbeafe">Lead tracking • bookings • dashboards • AI support</text>
</svg>
